<svg id="Layer_1" data-name="Layer 1" xmlns="http://www.w3.org/2000/svg" xmlns:xlink="http://www.w3.org/1999/xlink" viewBox="0 0 64.26 21.43">
  <defs>
    <style>
      .cls-1 {
        fill: none;
      }

      .cls-2 {
        font-size: 18.27px;
        fill: #fff;
        font-family: Helvetica Neue;
        letter-spacing: -1px;
      }

      .cls-3 {
        clip-path: url(#clip-path);
      }

      .cls-4 {
        fill: #224266;
      }
    </style>
    <clipPath id="clip-path" transform="translate(-8.2 -15.9)">
      <rect class="cls-1" x="8.2" y="18.53" width="10.31" height="13.03"/>
    </clipPath>
  </defs>
  <title>kurehun</title>
  <text class="cls-2" transform="translate(11.24 15.66)">ku<tspan x="15.75" y="0">r</tspan><tspan x="19.4" y="0">ehun</tspan></text>
  <g id="Artwork_17" data-name="Artwork 17">
    <g class="cls-3">
      <g class="cls-3">
        <path class="cls-4" d="M10.1,25h0.27V24.78a0.27,0.27,0,0,1,.27-0.27H17.7a0.27,0.27,0,0,1,.27.27V30.2a1.36,1.36,0,0,1-1.36,1.36H11.73a1.36,1.36,0,0,1-1.36-1.36V28.85H10.1a1.9,1.9,0,0,1,0-3.8m0,3.26h0.27V25.59H10.1a1.36,1.36,0,0,0,0,2.71" transform="translate(-8.2 -15.9)"/>
        <path class="cls-4" d="M12.27,24H11.19a0.27,0.27,0,0,1-.24-0.15l-0.83-1.69a1.32,1.32,0,0,1-1-1.27,2,2,0,0,1,1.57-2.28,0.27,0.27,0,0,1,.29.41,0.79,0.79,0,0,0,.19,1.08,2,2,0,0,1,.29.44,1.14,1.14,0,0,1,0,.89,1.08,1.08,0,0,1-.22.33l1.07,1.51a0.26,0.26,0,0,0,.07.1l0.13,0.19a0.27,0.27,0,0,1-.22.43m-1.35-3.23a1.64,1.64,0,0,0-.22-0.32,1.58,1.58,0,0,1-.46-1.08,1.54,1.54,0,0,0-.63,1.46,0.79,0.79,0,0,0,.66.8l0.46-.15a0.57,0.57,0,0,0,.21-0.24,0.6,0.6,0,0,0,0-.47" transform="translate(-8.2 -15.9)"/>
        <path class="cls-4" d="M18.1,20.74a0.27,0.27,0,0,1,.41.28l-0.25,1.51-1.31-1.1Z" transform="translate(-8.2 -15.9)"/>
        <path class="cls-4" d="M17.16,24H15.52a0.27,0.27,0,0,1-.27-0.26A0.27,0.27,0,0,1,15,24H12.81a0.27,0.27,0,0,1-.27-0.27V23.42h0.68a0.27,0.27,0,0,0,0-.54H12.54V22.33H13.9a0.27,0.27,0,0,0,0-.54H12.54V21.25h0.68a0.27,0.27,0,1,0,0-.54H12.54V20.16H13.9a0.27,0.27,0,0,0,0-.54H12.54V18.81a0.27,0.27,0,0,1,.27-0.27H15a0.27,0.27,0,0,1,.27.27v4.86a0.27,0.27,0,0,1,.08-0.17l1.2-1.69L18,23l-0.62.83a0.27,0.27,0,0,1-.22.11" transform="translate(-8.2 -15.9)"/>
      </g>
    </g>
  </g>
</svg>
