<?xml version="1.0" encoding="UTF-8" standalone="no"?>
<svg width="120px" height="35px" viewBox="0 0 120 35" version="1.1" xmlns="http://www.w3.org/2000/svg" xmlns:xlink="http://www.w3.org/1999/xlink" xmlns:sketch="http://www.bohemiancoding.com/sketch/ns">
    <!-- Generator: Sketch 3.2.2 (9983) - http://www.bohemiancoding.com/sketch -->
    <title>Instagram Logo</title>
    <desc>Created with Sketch.</desc>
    <defs></defs>
    <g id="FINAL" stroke="none" stroke-width="1" fill="none" fill-rule="evenodd" sketch:type="MSPage">
        <g id="Home" sketch:type="MSArtboardGroup" transform="translate(-272.000000, -372.000000)" fill="#FFFFFF">
            <g id="Group-3" sketch:type="MSLayerGroup" transform="translate(123.000000, 362.000000)">
                <g id="Fill-1-+-Fill-2" transform="translate(149.000000, 10.000000)" sketch:type="MSShapeGroup">
                    <g id="Instagram-Logo">
                        <path d="M6.58472764,0.810488889 C4.15680818,1.82928889 1.48769408,4.70388889 0.644710861,8.31468889 C-0.422894844,12.8884889 4.02003804,14.8226889 4.38422596,14.1894889 C4.81310516,13.4442889 3.58816388,13.1922889 3.33598771,10.8190889 C3.01013536,7.75388889 4.43274442,4.32888889 6.22333502,2.82608889 C6.55597596,2.54688889 6.54020247,2.93548889 6.54020247,3.65428889 C6.54020247,4.93968889 6.4693216,16.4786889 6.4693216,18.8868889 C6.4693216,22.1454889 6.33494744,23.1744889 6.09355314,24.1912889 C5.84916388,25.2216889 5.45602462,25.9178889 5.75392395,26.1860889 C6.08676455,26.4860889 7.50757663,25.7724889 8.33019408,24.6224889 C9.31653636,23.2432889 9.66175616,21.5868889 9.7238518,19.7880889 C9.79872596,17.6196889 9.79553133,14.1788889 9.79872596,12.2162889 C9.80172093,10.4162889 9.82887529,5.14548889 9.76717898,1.97688889 C9.75220415,1.19968889 7.60022093,0.384288889 6.58472764,0.810488889" id="Fill-1"></path>
                        <path d="M117.920209,18.9048889 C117.458785,21.0334889 116.973999,21.5138889 116.34885,21.5138889 C115.650424,21.5138889 115.022879,20.4600889 114.86155,18.3502889 C114.734963,16.6912889 114.755129,13.6372889 114.917456,10.5992889 C114.9506,9.97508889 114.778489,9.35748889 113.107098,8.74928889 C112.387907,8.48768889 111.342464,8.10248889 110.821939,9.36108889 C109.351411,12.9168889 108.775778,15.7398889 108.640405,16.8864889 C108.461706,15.9008889 108.26883,14.2316889 108.24507,10.7250889 C108.240278,10.0408889 108.095521,9.45848889 107.341588,8.98168889 C106.852411,8.67228889 105.366907,8.12508889 104.832006,8.77608889 C104.368785,9.30848889 103.831887,10.7412889 103.274224,12.4396889 C102.821186,13.8200889 102.505516,14.7538889 102.505516,14.7538889 C102.505516,14.7538889 102.511306,11.0292889 102.516697,9.61648889 C102.519093,9.08348889 102.154107,8.90588889 102.044092,8.87368889 C101.548724,8.72988889 100.572765,8.48928889 100.158661,8.48928889 C99.6473199,8.48928889 99.5221303,8.77528889 99.5221303,9.19228889 C99.5221303,9.24708889 99.4414659,14.0960889 99.4414659,17.4868889 C99.4414659,17.6342889 99.4416656,17.7948889 99.4422646,17.9656889 C99.1595397,19.5240889 98.2426807,21.6396889 97.2455565,21.6396889 C96.2472344,21.6396889 95.776226,20.7552889 95.776226,16.7128889 C95.776226,14.3548889 95.8469072,13.3292889 95.8816488,11.6236889 C95.9018149,10.6412889 95.9409491,9.88688889 95.9385531,9.71568889 C95.9311656,9.19068889 95.0248887,8.92608889 94.6031974,8.82828889 C94.1795095,8.72988889 93.811528,8.69148889 93.5238115,8.70788889 C93.1168954,8.73088889 92.829179,8.99828889 92.829179,9.36608889 C92.829179,9.56348889 92.8311756,9.93828889 92.8311756,9.93828889 C92.3070565,9.11328889 91.4640733,8.53908889 90.9032159,8.37268889 C89.3925548,7.92328889 87.8162041,8.32168889 86.6272025,9.98808889 C85.6821907,11.3122889 85.1125481,12.8120889 84.888325,14.9668889 C84.7244005,16.5422889 84.7779105,18.1396889 85.0692209,19.4906889 C84.7174122,21.0150889 84.0637109,21.6396889 83.3481135,21.6396889 C82.3092595,21.6396889 81.556325,19.9412889 81.6435783,17.0036889 C81.7012813,15.0716889 82.0872327,13.7156889 82.5091236,11.7540889 C82.6890213,10.9178889 82.5428669,10.4800889 82.176283,10.0604889 C81.8402478,9.67568889 81.1238518,9.47908889 80.093783,9.72088889 C79.3604156,9.89328889 78.3113786,10.0786889 77.3517914,10.2210889 C77.3517914,10.2210889 77.4096941,9.98968889 77.4572142,9.58168889 C77.7067948,7.44208889 75.3856958,7.61568889 74.6451404,8.29908889 C74.2030833,8.70708889 73.9023887,9.18828889 73.787981,10.0534889 C73.6068854,11.4264889 74.7248065,12.0740889 74.7248065,12.0740889 C74.3580229,13.7558889 73.458934,15.9528889 72.5308937,17.5412889 C72.0335297,18.3922889 71.6531689,19.0228889 71.1621941,19.6932889 C71.1603971,19.4434889 71.1589995,19.1938889 71.1582008,18.9454889 C71.1470196,15.4096889 71.1939407,12.6268889 71.2147058,11.6238889 C71.2348719,10.6414889 71.2744055,9.90708889 71.2720095,9.73588889 C71.2664189,9.35188889 71.0425951,9.20688889 70.5769776,9.02328889 C70.1652696,8.86088889 69.6784877,8.74848889 69.1735364,8.70928889 C68.5364072,8.65968889 68.1522528,8.99808889 68.162236,9.39848889 C68.1642327,9.47408889 68.1642327,9.93828889 68.1642327,9.93828889 C67.6401135,9.11328889 66.7971303,8.53908889 66.2362729,8.37268889 C64.7256119,7.92348889 63.1492612,8.32168889 61.9602595,9.98808889 C61.0154474,11.3122889 60.3966874,13.1704889 60.221382,14.9504889 C60.0580565,16.6094889 60.0882058,18.0190889 60.3108317,19.2068889 C60.0706354,20.3960889 59.3799961,21.6396889 58.5991085,21.6396889 C57.6007864,21.6396889 57.0327411,20.7552889 57.0327411,16.7128889 C57.0327411,14.3548889 57.1034223,13.3292889 57.1381639,11.6238889 C57.15833,10.6414889 57.1974642,9.88688889 57.1950682,9.71588889 C57.1876807,9.19088889 56.2814038,8.92628889 55.8597125,8.82828889 C55.4184541,8.72588889 55.0374944,8.68848889 54.744986,8.71008889 C54.3590347,8.73888889 54.0876907,9.08508889 54.0876907,9.34328889 L54.0876907,9.93828889 C53.5635716,9.11328889 52.7205884,8.53908889 52.159731,8.37268889 C50.6490699,7.92348889 49.0817041,8.32808889 47.8837176,9.98808889 C47.1026303,11.0704889 46.4702931,12.2704889 46.1448401,14.9268889 C46.0507981,15.6944889 46.0092679,16.4134889 46.0146588,17.0852889 C45.7031823,18.9932889 44.3276941,21.1924889 43.2021857,21.1924889 C42.5436924,21.1924889 41.9165464,19.9130889 41.9165464,17.1864889 C41.9165464,13.5544889 42.1409692,8.38348889 42.1789055,7.88508889 C42.1789055,7.88508889 43.6007159,7.86088889 43.8760531,7.85768889 C44.5854609,7.84988889 45.2275817,7.86668889 46.1721941,7.81828889 C46.6459978,7.79408889 47.1024307,6.09088889 46.6134525,5.88008889 C46.391825,5.78468889 44.8254575,5.70108889 44.2045011,5.68788889 C43.6823786,5.67608889 42.2288216,5.56828889 42.2288216,5.56828889 C42.2288216,5.56828889 42.3592025,2.13588889 42.3897511,1.77328889 C42.4153082,1.47108889 42.0249642,1.31548889 41.8011404,1.22108889 C41.2568552,0.990488889 40.7698736,0.880088889 40.1928434,0.760888889 C39.395184,0.596088889 39.0333921,0.757288889 38.9627109,1.43148889 C38.8562897,2.45468889 38.8011823,5.45168889 38.8011823,5.45168889 C38.2159659,5.45168889 36.2169256,5.33708889 35.6315095,5.33708889 C35.0876236,5.33708889 34.5006102,7.68008889 35.2525464,7.70888889 C36.1176924,7.74248889 37.6253585,7.77168889 38.6250783,7.80168889 C38.6250783,7.80168889 38.5803535,13.0580889 38.5803535,14.6808889 C38.5803535,14.8536889 38.5811521,15.0198889 38.5823501,15.1810889 C38.032075,18.0530889 36.0945313,19.6044889 36.0945313,19.6044889 C36.510632,17.7044889 35.6606605,16.2776889 34.1296337,15.0698889 C33.5655817,14.6248889 32.4520531,13.7822889 31.2061471,12.8588889 C31.2061471,12.8588889 31.9277344,12.1466889 32.5678585,10.7132889 C33.0210968,9.69788889 33.0406639,8.53628889 31.9277344,8.28008889 C30.0890246,7.85648889 28.5725733,9.20928889 28.1203333,10.6534889 C27.7699223,11.7724889 27.9568082,12.6024889 28.6432545,13.4648889 C28.6933703,13.5278889 28.747679,13.5922889 28.8037847,13.6570889 C28.3886823,14.4584889 27.8184407,15.5374889 27.3356521,16.3742889 C25.9949055,18.6974889 24.9822075,20.5350889 24.2168937,20.5350889 C23.6051219,20.5350889 23.6133082,18.6692889 23.6133082,16.9224889 C23.6133082,15.4166889 23.7243216,13.1526889 23.8129726,10.8086889 C23.8423233,10.0334889 23.4553736,9.59188889 22.8066639,9.19188889 C22.4125263,8.94888889 21.5713401,8.47108889 21.0841588,8.47108889 C20.3549844,8.47108889 18.2511203,8.57048889 16.2632612,14.3302889 C16.012882,15.0562889 15.5207092,16.3790889 15.5207092,16.3790889 L15.563038,9.45268889 C15.563038,9.29028889 15.476783,9.13328889 15.2789156,9.02588889 C14.9440783,8.84368889 14.049382,8.47108889 13.2537192,8.47108889 C12.8747562,8.47108889 12.6854743,8.64768889 12.6854743,8.99968889 L12.6161907,19.8360889 C12.6161907,20.6596889 12.6375548,21.6200889 12.7188182,22.0400889 C12.799882,22.4606889 12.9310615,22.8028889 13.0933887,23.0064889 C13.2557159,23.2096889 13.4434005,23.3646889 13.7528803,23.4286889 C14.0407964,23.4880889 15.6175464,23.6908889 15.6996085,23.0872889 C15.7976437,22.3638889 15.8014374,21.5814889 16.6294458,18.6634889 C17.9184793,14.1204889 19.5988552,11.9038889 20.3893266,11.1166889 C20.5272948,10.9790889 20.6850297,10.9708889 20.6774424,11.1960889 C20.6436991,12.1920889 20.5252981,14.6808889 20.4452327,16.7952889 C20.2311924,22.4536889 21.2588652,23.5024889 22.7273971,23.5024889 C23.8509088,23.5024889 25.4346471,22.3842889 27.1323937,19.5536889 C28.1908149,17.7896889 29.2184877,16.0600889 29.9568468,14.8134889 C30.471382,15.2906889 31.0488115,15.8040889 31.6258417,16.3526889 C32.9669877,17.6274889 33.4070481,18.8388889 33.114939,19.9880889 C32.8915146,20.8666889 32.0501286,21.7720889 30.5526454,20.8920889 C30.116179,20.6352889 29.9298921,20.4368889 29.4910297,20.1474889 C29.255226,19.9920889 28.8954307,19.9454889 28.6795934,20.1084889 C28.118736,20.5318889 27.798075,21.0704889 27.6149827,21.7372889 C27.436882,22.3860889 28.0855917,22.7290889 28.7580615,23.0290889 C29.3370884,23.2872889 30.5815968,23.5212889 31.3752629,23.5478889 C34.4676656,23.6514889 36.9449021,22.0522889 38.6694038,17.9270889 C38.9782847,21.4898889 40.291877,23.5056889 42.5744407,23.5056889 C44.100476,23.5056889 45.6305045,21.5298889 46.29958,19.5860889 C46.4916572,20.3784889 46.7759793,21.0674889 47.1431622,21.6502889 C48.9020062,24.4416889 52.3140716,23.8408889 54.0281907,21.4704889 C54.5579005,20.7380889 54.6385649,20.4748889 54.6385649,20.4748889 C54.8885448,22.7130889 56.6879206,23.4950889 57.718189,23.4950889 C58.8720498,23.4950889 60.0634474,22.9486889 60.8984441,21.0656889 C60.9962797,21.2700889 61.1031001,21.4652889 61.2197041,21.6502889 C62.9785481,24.4416889 66.3908132,23.8408889 68.1047327,21.4704889 C68.1853971,21.3592889 68.2554793,21.2584889 68.3167763,21.1678889 L68.3670917,22.6380889 C68.3670917,22.6380889 67.3895347,23.5364889 66.7893434,24.0876889 C64.144189,26.5158889 62.1349659,28.3576889 61.9872142,30.5024889 C61.7991303,33.2372889 64.0120112,34.2536889 65.6887931,34.3868889 C67.4662058,34.5282889 68.9910431,33.5438889 69.9268703,32.1662889 C70.750486,30.9536889 71.28958,28.3438889 71.2500464,25.7662889 C71.2342729,24.7340889 71.2083166,23.4216889 71.1879508,22.0148889 C72.1163904,20.9348889 73.162632,19.5696889 74.1256135,17.9720889 C75.1754491,16.2308889 76.3001588,13.8924889 76.8761907,12.0726889 C76.8761907,12.0726889 77.8535481,12.0810889 78.8965951,12.0126889 C79.2302344,11.9908889 79.3260733,12.0590889 79.264377,12.3040889 C79.1899021,12.6000889 77.9467914,17.4036889 79.0812847,20.6036889 C79.8579793,22.7942889 81.6088367,23.4990889 82.6470917,23.4990889 C83.8620498,23.4990889 85.0244961,22.5798889 85.6474491,21.2148889 C85.7225229,21.3670889 85.8009911,21.5142889 85.8866471,21.6502889 C87.6454911,24.4416889 91.0455766,23.8372889 92.771476,21.4704889 C93.1610213,20.9364889 93.3820498,20.4748889 93.3820498,20.4748889 C93.752627,22.7912889 95.5508048,23.5068889 96.5810733,23.5068889 C97.6540699,23.5068889 98.6721588,23.0662889 99.4983703,21.1080889 C99.5329122,21.9702889 99.5872209,22.6752889 99.6730766,22.8974889 C99.7253887,23.0334889 100.030276,23.2040889 100.252103,23.2864889 C101.233654,23.6508889 102.234771,23.4786889 102.605348,23.4036889 C102.861917,23.3518889 103.061981,23.1454889 103.089135,22.6130889 C103.161015,21.2150889 103.116889,18.8662889 103.539978,17.1204889 C104.250184,14.1908889 104.912671,13.0544889 105.226942,12.4918889 C105.402847,12.1766889 105.601313,12.1246889 105.608501,12.4582889 C105.623276,13.1332889 105.65682,15.1154889 105.932157,17.7786889 C106.134018,19.7372889 106.403964,20.8950889 106.611416,21.2614889 C107.203421,22.3092889 107.934592,22.3588889 108.529991,22.3588889 C108.908754,22.3588889 109.701023,22.2540889 109.629942,21.5872889 C109.5954,21.2622889 109.655899,19.2536889 110.356122,16.3674889 C110.813353,14.4826889 111.575672,12.7798889 111.85061,12.1570889 C111.939661,13.4416889 111.809679,17.6872889 112.337791,20.0092889 C113.053389,23.1548889 115.12331,23.5068889 115.844697,23.5068889 C117.384709,23.5068889 118.644392,22.3334889 119.068679,19.2458889 C119.170708,18.5028889 119.019362,17.9290889 118.565924,17.9290889 C118.213716,17.9290889 118.053186,18.2928889 117.920209,18.9048889 Z M54.0565431,16.0204889 C53.9682914,17.6544889 53.6500263,19.0204889 53.1392847,20.0126889 C52.2152377,21.8084889 50.3871102,22.3778889 49.5808652,19.7830889 C48.9996421,17.9118889 49.1975095,15.3606889 49.4393031,13.9824889 C49.7981001,11.9372889 50.6965901,10.4872889 52.0992327,10.6246889 C53.5400112,10.7656889 54.240434,12.6204889 54.0565431,16.0204889 L54.0565431,16.0204889 Z M68.133085,16.0438889 C68.0508233,17.5868889 67.6514944,19.1368889 67.2158266,20.0126889 C66.316538,21.8208889 64.4364978,22.3860889 63.6574072,19.7830889 C63.1247025,18.0044889 63.252288,15.7026889 63.5158451,14.2522889 C63.8578703,12.3704889 64.686877,10.6246889 66.1757746,10.6246889 C67.6233417,10.6246889 68.3371421,12.2154889 68.133085,16.0438889 L68.133085,16.0438889 Z M68.5004676,26.5708889 C68.4809005,29.3856889 68.0386437,31.8536889 67.0902377,32.5704889 C65.7450984,33.5868889 63.937137,32.8244889 64.3115078,30.7704889 C64.6429508,28.9528889 66.2093182,27.0966889 68.5042612,24.8286889 C68.5042612,24.8286889 68.5090531,25.3458889 68.5004676,26.5708889 L68.5004676,26.5708889 Z M92.800028,16.0604889 C92.7219592,17.7544889 92.3475884,19.0786889 91.8827696,20.0126889 C90.9832813,21.8208889 89.1168182,22.3822889 88.3243501,19.7830889 C87.892476,18.3662889 87.8723099,15.9998889 88.182788,14.0224889 C88.4988568,12.0084889 89.3813736,10.4872889 90.8427176,10.6244889 C92.2840951,10.7600889 92.9587612,12.6204889 92.800028,16.0604889 L92.800028,16.0604889 Z" id="Fill-2"></path>
                    </g>
                </g>
            </g>
        </g>
    </g>
</svg>